<svg width="33" height="33" viewBox="0 0 33 33" fill="none" xmlns="http://www.w3.org/2000/svg">
<g clip-path="url(#clip0_288_21248)">
<path d="M20.5 27.6798L17.91 25.0898L16.5 26.4998L20.5 30.4998L28.5 22.4998L27.09 21.0898L20.5 27.6798Z" fill="#28A7E6"/>
<path d="M10.5 28.5V10.5H22.5V19.5H24.5V6.5C24.4995 5.96973 24.2886 5.46133 23.9136 5.08637C23.5387 4.71141 23.0303 4.50053 22.5 4.5H10.5C9.96973 4.50053 9.46133 4.71141 9.08637 5.08637C8.71141 5.46133 8.50053 5.96973 8.5 6.5V28.5C8.50053 29.0303 8.71141 29.5387 9.08637 29.9136C9.46133 30.2886 9.96973 30.4995 10.5 30.5H14.5V28.5H10.5ZM10.5 6.5H22.5V8.5H10.5V6.5Z" fill="#28A7E6"/>
</g>
<defs>
<clipPath id="clip0_288_21248">
<rect width="32" height="32" fill="white" transform="translate(0.5 0.5)"/>
</clipPath>
</defs>
</svg>
