<svg width="33" height="33" viewBox="0 0 33 33" fill="none" xmlns="http://www.w3.org/2000/svg">
<path d="M16.3933 6.44165C15.8035 6.44165 15.2378 6.67596 14.8207 7.09305C14.4037 7.51013 14.1693 8.07581 14.1693 8.66565C14.1693 9.25549 14.4037 9.82118 14.8207 10.2383C15.2378 10.6553 15.8035 10.8897 16.3933 10.8897C16.9832 10.8897 17.5489 10.6553 17.966 10.2383C18.383 9.82118 18.6173 9.25549 18.6173 8.66565C18.6173 8.07581 18.383 7.51013 17.966 7.09305C17.5489 6.67596 16.9832 6.44165 16.3933 6.44165ZM12.6867 8.66565C12.6867 7.68258 13.0772 6.73978 13.7723 6.04464C14.4675 5.34951 15.4103 4.95898 16.3933 4.95898C17.3764 4.95898 18.3192 5.34951 19.0144 6.04464C19.7095 6.73978 20.1 7.68258 20.1 8.66565C20.1 9.64872 19.7095 10.5915 19.0144 11.2867C18.3192 11.9818 17.3764 12.3723 16.3933 12.3723C15.4103 12.3723 14.4675 11.9818 13.7723 11.2867C13.0772 10.5915 12.6867 9.64872 12.6867 8.66565ZM24.548 7.92432C24.1548 7.92432 23.7777 8.08053 23.4996 8.35858C23.2216 8.63663 23.0653 9.01376 23.0653 9.40698C23.0653 9.80021 23.2216 10.1773 23.4996 10.4554C23.7777 10.7334 24.1548 10.8897 24.548 10.8897C24.9412 10.8897 25.3184 10.7334 25.5964 10.4554C25.8745 10.1773 26.0307 9.80021 26.0307 9.40698C26.0307 9.01376 25.8745 8.63663 25.5964 8.35858C25.3184 8.08053 24.9412 7.92432 24.548 7.92432ZM21.5827 9.40698C21.5827 8.62053 21.8951 7.86628 22.4512 7.31018C23.0073 6.75407 23.7616 6.44165 24.548 6.44165C25.3345 6.44165 26.0887 6.75407 26.6448 7.31018C27.2009 7.86628 27.5133 8.62053 27.5133 9.40698C27.5133 10.1934 27.2009 10.9477 26.6448 11.5038C26.0887 12.0599 25.3345 12.3723 24.548 12.3723C23.7616 12.3723 23.0073 12.0599 22.4512 11.5038C21.8951 10.9477 21.5827 10.1934 21.5827 9.40698ZM6.75601 9.40698C6.75601 9.01376 6.91222 8.63663 7.19028 8.35858C7.46833 8.08053 7.84545 7.92432 8.23868 7.92432C8.63191 7.92432 9.00903 8.08053 9.28708 8.35858C9.56514 8.63663 9.72135 9.01376 9.72135 9.40698C9.72135 9.80021 9.56514 10.1773 9.28708 10.4554C9.00903 10.7334 8.63191 10.8897 8.23868 10.8897C7.84545 10.8897 7.46833 10.7334 7.19028 10.4554C6.91222 10.1773 6.75601 9.80021 6.75601 9.40698ZM8.23868 6.44165C7.45222 6.44165 6.69798 6.75407 6.14187 7.31018C5.58576 7.86628 5.27335 8.62053 5.27335 9.40698C5.27335 10.1934 5.58576 10.9477 6.14187 11.5038C6.69798 12.0599 7.45222 12.3723 8.23868 12.3723C9.02513 12.3723 9.77938 12.0599 10.3355 11.5038C10.8916 10.9477 11.204 10.1934 11.204 9.40698C11.204 8.62053 10.8916 7.86628 10.3355 7.31018C9.77938 6.75407 9.02513 6.44165 8.23868 6.44165ZM9.12828 24.2307C8.72682 24.2508 8.32547 24.1891 7.94861 24.0492C7.57174 23.9094 7.22724 23.6945 6.93603 23.4174C6.64482 23.1403 6.41297 22.8069 6.25459 22.4375C6.0962 22.0681 6.01458 21.6703 6.01468 21.2683V15.7083C6.01468 15.61 6.05373 15.5157 6.12325 15.4462C6.19276 15.3767 6.28704 15.3376 6.38535 15.3376H9.00077C9.06008 14.7935 9.25282 14.2879 9.54194 13.855H6.38535C5.36231 13.855 4.53201 14.6853 4.53201 15.7083V21.2683C4.53194 21.9031 4.66773 22.5305 4.93026 23.1084C5.19279 23.6863 5.57596 24.2014 6.05405 24.6189C6.53214 25.0365 7.09406 25.3469 7.70205 25.5293C8.31005 25.7116 8.95003 25.7618 9.57901 25.6763C9.37945 25.2112 9.22841 24.7268 9.12828 24.2307ZM23.2077 25.6763C23.8367 25.7618 24.4766 25.7116 25.0846 25.5293C25.6926 25.3469 26.2546 25.0365 26.7326 24.6189C27.2107 24.2014 27.5939 23.6863 27.8564 23.1084C28.119 22.5305 28.2547 21.9031 28.2547 21.2683V15.7083C28.2547 14.6853 27.4244 13.855 26.4013 13.855H23.2447C23.5353 14.2879 23.7266 14.7935 23.7859 15.3376H26.4013C26.4997 15.3376 26.5939 15.3767 26.6634 15.4462C26.733 15.5157 26.772 15.61 26.772 15.7083V21.2683C26.7721 21.6703 26.6905 22.0681 26.5321 22.4375C26.3737 22.8069 26.1419 23.1403 25.8507 23.4174C25.5594 23.6945 25.2149 23.9094 24.8381 24.0492C24.4612 24.1891 24.0599 24.2508 23.6584 24.2307C23.5582 24.7268 23.4072 25.2112 23.2077 25.6763ZM12.316 13.855C11.293 13.855 10.4627 14.6853 10.4627 15.7083V22.751C10.4627 24.3239 11.0875 25.8324 12.1997 26.9446C13.3119 28.0568 14.8204 28.6816 16.3933 28.6816C17.9663 28.6816 19.4747 28.0568 20.587 26.9446C21.6992 25.8324 22.324 24.3239 22.324 22.751V15.7083C22.324 14.6853 21.4937 13.855 20.4707 13.855H12.316ZM11.9453 15.7083C11.9453 15.61 11.9844 15.5157 12.0539 15.4462C12.1234 15.3767 12.2177 15.3376 12.316 15.3376H20.4707C20.569 15.3376 20.6633 15.3767 20.7328 15.4462C20.8023 15.5157 20.8413 15.61 20.8413 15.7083V22.751C20.8413 23.9307 20.3727 25.062 19.5386 25.8962C18.7044 26.7304 17.573 27.199 16.3933 27.199C15.2137 27.199 14.0823 26.7304 13.2481 25.8962C12.414 25.062 11.9453 23.9307 11.9453 22.751V15.7083Z" fill="#28A7E6"/>
</svg>
