<svg width="32" height="32" viewBox="0 0 32 32" fill="none" xmlns="http://www.w3.org/2000/svg">
<path d="M10.9086 17.6114C11.1725 17.6756 11.4427 17.7101 11.7143 17.7143C12.3952 17.7141 13.0606 17.5112 13.6257 17.1314L16.3857 19.5914C16.1671 20.0066 16.0388 20.4634 16.0092 20.9317C15.9797 21.4 16.0496 21.8692 16.2143 22.3086C16.3873 22.8064 16.6728 23.2576 17.0485 23.6272C17.4242 23.9968 17.8801 24.2748 18.3807 24.4396C18.8813 24.6044 19.4132 24.6516 19.935 24.5775C20.4568 24.5034 20.9544 24.31 21.3894 24.0123C21.8243 23.7146 22.1847 23.3207 22.4427 22.8611C22.7006 22.4015 22.8491 21.8886 22.8767 21.3623C22.9043 20.836 22.8101 20.3104 22.6016 19.8264C22.393 19.3423 22.0757 18.9129 21.6743 18.5714L23.8514 14.2086C24.2764 14.3044 24.7163 14.3136 25.1449 14.2355C25.5734 14.1575 25.9818 13.9938 26.3457 13.7543C26.9636 13.3772 27.4463 12.8142 27.7247 12.1459C28.003 11.4776 28.0627 10.7384 27.8951 10.0342C27.7276 9.32994 27.3415 8.69679 26.792 8.22545C26.2426 7.75411 25.5581 7.46876 24.8365 7.4103C24.115 7.35184 23.3935 7.52326 22.7753 7.9C22.1572 8.27674 21.6741 8.83947 21.3954 9.50756C21.1167 10.1757 21.0566 10.9148 21.2237 11.6192C21.3908 12.3235 21.7766 12.9569 22.3257 13.4286L20.1486 17.7914C19.9121 17.7394 19.6707 17.7136 19.4286 17.7143C18.7477 17.7145 18.0823 17.9174 17.5171 18.2971L14.7571 15.8371C14.9758 15.422 15.1041 14.9652 15.1336 14.4969C15.1632 14.0286 15.0933 13.5594 14.9286 13.12C14.7568 12.6258 14.4743 12.1774 14.1025 11.8093C13.7307 11.4412 13.2797 11.163 12.7838 10.9961C12.2879 10.8291 11.7605 10.7779 11.2417 10.8463C10.723 10.9147 10.2269 11.1009 9.79122 11.3907C9.35558 11.6804 8.99203 12.066 8.72842 12.518C8.46481 12.9699 8.30812 13.4762 8.27036 13.998C8.2326 14.5198 8.31476 15.0434 8.51057 15.5286C8.70637 16.0138 9.01061 16.4477 9.4 16.7971L5.71429 23.7143V4H4V26.2857C4 26.7404 4.18061 27.1764 4.5021 27.4979C4.82359 27.8194 5.25963 28 5.71429 28H28V26.2857H6.28857L10.9086 17.6114ZM24.5714 9.14286C24.9105 9.14286 25.2419 9.2434 25.5238 9.43177C25.8057 9.62013 26.0255 9.88787 26.1552 10.2011C26.285 10.5144 26.3189 10.859 26.2528 11.1916C26.1866 11.5241 26.0234 11.8296 25.7836 12.0693C25.5439 12.3091 25.2384 12.4723 24.9059 12.5385C24.5733 12.6046 24.2286 12.5707 23.9154 12.4409C23.6022 12.3112 23.3344 12.0915 23.1461 11.8095C22.9577 11.5276 22.8571 11.1962 22.8571 10.8571C22.8571 10.4025 23.0378 9.96645 23.3592 9.64496C23.6807 9.32347 24.1168 9.14286 24.5714 9.14286ZM21.1429 21.1429C21.1429 21.4819 21.0423 21.8134 20.8539 22.0953C20.6656 22.3772 20.3978 22.5969 20.0846 22.7267C19.7714 22.8564 19.4267 22.8904 19.0941 22.8242C18.7616 22.7581 18.4561 22.5948 18.2164 22.355C17.9766 22.1153 17.8134 21.8098 17.7472 21.4773C17.6811 21.1448 17.715 20.8001 17.8448 20.4868C17.9745 20.1736 18.1943 19.9058 18.4762 19.7175C18.7581 19.5291 19.0895 19.4286 19.4286 19.4286C19.8832 19.4286 20.3193 19.6092 20.6408 19.9307C20.9622 20.2522 21.1429 20.6882 21.1429 21.1429ZM11.7143 12.5714C12.0533 12.5714 12.3848 12.672 12.6667 12.8603C12.9486 13.0487 13.1683 13.3164 13.2981 13.6297C13.4278 13.9429 13.4618 14.2876 13.3956 14.6202C13.3295 14.9527 13.1662 15.2582 12.9265 15.4979C12.6867 15.7376 12.3813 15.9009 12.0487 15.9671C11.7162 16.0332 11.3715 15.9993 11.0583 15.8695C10.745 15.7398 10.4773 15.52 10.2889 15.2381C10.1005 14.9562 10 14.6248 10 14.2857C10 13.8311 10.1806 13.395 10.5021 13.0735C10.8236 12.752 11.2596 12.5714 11.7143 12.5714Z" fill="#28A7E6"/>
</svg>
