<svg width="32" height="32" viewBox="0 0 32 32" fill="none" xmlns="http://www.w3.org/2000/svg">
<path d="M19.6918 12.7667L18.5837 11.6587C18.4423 11.5172 18.2691 11.4475 18.0726 11.4603C17.8838 11.4726 17.7185 11.5503 17.5813 11.6865L17.581 11.6869C17.4418 11.8261 17.3676 11.9953 17.3676 12.1883C17.3676 12.3812 17.4418 12.5504 17.581 12.6896L18.7951 13.9037C19.0472 14.1559 19.3482 14.2865 19.6918 14.2865C20.0353 14.2865 20.3363 14.1559 20.5884 13.9037L20.5889 13.9032L23.3837 11.0802C23.3838 11.0801 23.384 11.0799 23.3841 11.0798C23.523 10.9407 23.5971 10.7716 23.5971 10.5788C23.5971 10.3859 23.5229 10.2167 23.3837 10.0775C23.2445 9.93831 23.0753 9.86414 22.8823 9.86414C22.6894 9.86414 22.5202 9.93831 22.381 10.0775L19.6918 12.7667ZM5.95 24.471V24.4706C5.95 24.1885 6.04395 23.9588 6.23134 23.7714C6.4187 23.584 6.64789 23.4905 6.92906 23.4912H6.92941H18.2235C18.5057 23.4912 18.7353 23.5852 18.9227 23.7725C19.1101 23.9599 19.2036 24.1891 19.2029 24.4703V24.4706C19.2029 24.7528 19.109 24.9824 18.9216 25.1698C18.7342 25.3572 18.505 25.4507 18.2239 25.45H18.2235H6.92941C6.64727 25.45 6.41759 25.3561 6.23021 25.1687C6.04284 24.9813 5.94934 24.7521 5.95 24.471ZM20.4824 17.5441H20.4823C18.9596 17.5441 17.6659 17.0091 16.5926 15.9357C15.5192 14.8624 14.9846 13.5691 14.9853 12.0472V12.0471C14.9853 10.5244 15.5204 9.23062 16.5937 8.15729C17.667 7.08396 18.9604 6.54929 20.4823 6.55003H20.4823C22.005 6.55003 23.2988 7.08509 24.3721 8.15842C25.4455 9.23175 25.9801 10.5251 25.9794 12.047V12.0471C25.9794 13.5698 25.4443 14.8635 24.371 15.9369C23.2977 17.0102 22.0043 17.5449 20.4824 17.5441ZM5.95 15.4357V15.4353C5.95 15.1532 6.04395 14.9235 6.23134 14.7361C6.4187 14.5487 6.64789 14.4552 6.92906 14.4559H6.92941H12.8061C12.9314 14.8374 13.0727 15.2032 13.2303 15.5533C13.3647 15.8521 13.5223 16.1393 13.7029 16.4147H6.92941C6.64727 16.4147 6.41759 16.3208 6.23021 16.1334C6.04284 15.946 5.94934 15.7168 5.95 15.4357ZM5.95 19.9533V19.953C5.95 19.6708 6.04395 19.4411 6.23134 19.2538C6.4187 19.0664 6.64789 18.9729 6.92906 18.9736H6.92941H16.3746C16.8056 19.2327 17.2636 19.451 17.7484 19.6285C18.2092 19.7972 18.6939 19.9203 19.2021 19.998C19.1926 20.2597 19.0989 20.4749 18.9216 20.6522C18.7342 20.8395 18.505 20.933 18.2239 20.9324H18.2235H6.92941C6.64727 20.9324 6.41759 20.8384 6.23021 20.651C6.04284 20.4637 5.94934 20.2345 5.95 19.9533Z" fill="#28A7E6" stroke="white" stroke-width="0.3"/>
</svg>
