<svg width="32" height="32" viewBox="0 0 32 32" fill="none" xmlns="http://www.w3.org/2000/svg">
<g clip-path="url(#clip0_250_3155)">
<path d="M26 4C26 5.10417 25.8438 6.17708 25.5312 7.21875C25.2188 8.26042 24.7448 9.24479 24.1094 10.1719C23.7865 10.6406 23.4479 11.0677 23.0938 11.4531C22.7396 11.8385 22.3646 12.1875 21.9688 12.5C21.5729 12.8125 21.1458 13.1094 20.6875 13.3906C20.2292 13.6719 19.75 13.9271 19.25 14.1562C18.8646 14.3333 18.5625 14.5729 18.3438 14.875C18.125 15.1771 18.0104 15.5521 18 16C18 16.4375 18.1094 16.8073 18.3281 17.1094C18.5469 17.4115 18.8542 17.6562 19.25 17.8438C19.7604 18.0833 20.2396 18.3385 20.6875 18.6094C21.1354 18.8802 21.5573 19.1719 21.9531 19.4844C22.349 19.7969 22.7292 20.151 23.0938 20.5469C23.4583 20.9427 23.7969 21.3698 24.1094 21.8281C24.7344 22.7448 25.2031 23.724 25.5156 24.7656C25.8281 25.8073 25.9896 26.8854 26 28H28V30H2V28H4C4 26.8958 4.15625 25.8229 4.46875 24.7812C4.78125 23.7396 5.25521 22.7552 5.89062 21.8281C6.22396 21.3385 6.56771 20.9062 6.92188 20.5312C7.27604 20.1562 7.64583 19.8073 8.03125 19.4844C8.41667 19.1615 8.83854 18.875 9.29688 18.625C9.75521 18.375 10.2396 18.1198 10.75 17.8594C11.125 17.6823 11.4271 17.4375 11.6562 17.125C11.8854 16.8125 12 16.4375 12 16C12 15.5625 11.8906 15.1927 11.6719 14.8906C11.4531 14.5885 11.1458 14.3438 10.75 14.1562C10.2396 13.9167 9.76042 13.6615 9.3125 13.3906C8.86458 13.1198 8.44271 12.8281 8.04688 12.5156C7.65104 12.2031 7.27083 11.849 6.90625 11.4531C6.54167 11.0573 6.20312 10.6302 5.89062 10.1719C5.26562 9.25521 4.79688 8.27604 4.48438 7.23438C4.17188 6.19271 4.01042 5.11458 4 4H2V2H28V4H26ZM16 16C16 15.1458 16.224 14.4062 16.6719 13.7812C17.1198 13.1562 17.7188 12.6615 18.4688 12.2969C18.7708 12.151 19.0625 12.0104 19.3438 11.875C19.625 11.7396 19.901 11.5677 20.1719 11.3594C20.776 10.9427 21.3125 10.4635 21.7812 9.92188C22.25 9.38021 22.651 8.79167 22.9844 8.15625C23.3177 7.52083 23.5677 6.85417 23.7344 6.15625C23.901 5.45833 23.9896 4.73958 24 4H6C6 4.72917 6.08333 5.44271 6.25 6.14062C6.41667 6.83854 6.66667 7.50521 7 8.14062C7.33333 8.77604 7.73438 9.36458 8.20312 9.90625C8.67188 10.4479 9.21354 10.9323 9.82812 11.3594C10.099 11.5573 10.375 11.724 10.6562 11.8594C10.9375 11.9948 11.2292 12.1406 11.5312 12.2969C12.2812 12.6615 12.8802 13.1562 13.3281 13.7812C13.776 14.4062 14 15.1458 14 16C14 16.8542 13.776 17.5938 13.3281 18.2188C12.8802 18.8438 12.2812 19.3385 11.5312 19.7031C11.2292 19.849 10.9375 19.9896 10.6562 20.125C10.375 20.2604 10.099 20.4323 9.82812 20.6406C9.22396 21.0573 8.6875 21.5365 8.21875 22.0781C7.75 22.6198 7.34896 23.2083 7.01562 23.8438C6.68229 24.4792 6.43229 25.1458 6.26562 25.8438C6.09896 26.5417 6.01042 27.2604 6 28H24C24 27.2708 23.9167 26.5573 23.75 25.8594C23.5833 25.1615 23.3333 24.4948 23 23.8594C22.6667 23.224 22.2656 22.6354 21.7969 22.0938C21.3281 21.5521 20.7865 21.0677 20.1719 20.6406C19.901 20.4427 19.625 20.276 19.3438 20.1406C19.0625 20.0052 18.7708 19.8594 18.4688 19.7031C17.7188 19.3385 17.1198 18.8438 16.6719 18.2188C16.224 17.5938 16 16.8542 16 16Z" fill="#28A7E6"/>
</g>
<defs>
<clipPath id="clip0_250_3155">
<rect width="32" height="32" fill="white"/>
</clipPath>
</defs>
</svg>
