<svg width="32" height="32" viewBox="0 0 32 32" fill="none" xmlns="http://www.w3.org/2000/svg">
<g clip-path="url(#clip0_250_3386)">
<path d="M26 5.5H22.5V4C22.5 3.86739 22.4473 3.74021 22.3536 3.64645C22.2598 3.55268 22.1326 3.5 22 3.5C21.8674 3.5 21.7402 3.55268 21.6464 3.64645C21.5527 3.74021 21.5 3.86739 21.5 4V5.5H10.5V4C10.5 3.86739 10.4473 3.74021 10.3536 3.64645C10.2598 3.55268 10.1326 3.5 10 3.5C9.86739 3.5 9.74021 3.55268 9.64645 3.64645C9.55268 3.74021 9.5 3.86739 9.5 4V5.5H6C5.60218 5.5 5.22064 5.65804 4.93934 5.93934C4.65804 6.22064 4.5 6.60218 4.5 7V27C4.5 27.3978 4.65804 27.7794 4.93934 28.0607C5.22064 28.342 5.60218 28.5 6 28.5H26C26.3978 28.5 26.7794 28.342 27.0607 28.0607C27.342 27.7794 27.5 27.3978 27.5 27V7C27.5 6.60218 27.342 6.22064 27.0607 5.93934C26.7794 5.65804 26.3978 5.5 26 5.5ZM6 6.5H9.5V8C9.5 8.13261 9.55268 8.25979 9.64645 8.35355C9.74021 8.44732 9.86739 8.5 10 8.5C10.1326 8.5 10.2598 8.44732 10.3536 8.35355C10.4473 8.25979 10.5 8.13261 10.5 8V6.5H21.5V8C21.5 8.13261 21.5527 8.25979 21.6464 8.35355C21.7402 8.44732 21.8674 8.5 22 8.5C22.1326 8.5 22.2598 8.44732 22.3536 8.35355C22.4473 8.25979 22.5 8.13261 22.5 8V6.5H26C26.1326 6.5 26.2598 6.55268 26.3536 6.64645C26.4473 6.74021 26.5 6.86739 26.5 7V11.5H5.5V7C5.5 6.86739 5.55268 6.74021 5.64645 6.64645C5.74021 6.55268 5.86739 6.5 6 6.5ZM26 27.5H6C5.86739 27.5 5.74021 27.4473 5.64645 27.3536C5.55268 27.2598 5.5 27.1326 5.5 27V12.5H26.5V27C26.5 27.1326 26.4473 27.2598 26.3536 27.3536C26.2598 27.4473 26.1326 27.5 26 27.5Z" fill="#28A7E6"/>
</g>
<defs>
<clipPath id="clip0_250_3386">
<rect width="32" height="32" fill="white"/>
</clipPath>
</defs>
</svg>
