<svg width="32" height="32" viewBox="0 0 32 32" fill="none" xmlns="http://www.w3.org/2000/svg">
<path d="M15.8933 5.94128C15.3035 5.94128 14.7378 6.1756 14.3207 6.59268C13.9037 7.00976 13.6693 7.57544 13.6693 8.16528C13.6693 8.75513 13.9037 9.32081 14.3207 9.73789C14.7378 10.155 15.3035 10.3893 15.8933 10.3893C16.4832 10.3893 17.0489 10.155 17.466 9.73789C17.883 9.32081 18.1173 8.75513 18.1173 8.16528C18.1173 7.57544 17.883 7.00976 17.466 6.59268C17.0489 6.1756 16.4832 5.94128 15.8933 5.94128ZM12.1867 8.16528C12.1867 7.18222 12.5772 6.23941 13.2723 5.54428C13.9675 4.84914 14.9103 4.45862 15.8933 4.45862C16.8764 4.45862 17.8192 4.84914 18.5144 5.54428C19.2095 6.23941 19.6 7.18222 19.6 8.16528C19.6 9.14835 19.2095 10.0912 18.5144 10.7863C17.8192 11.4814 16.8764 11.872 15.8933 11.872C14.9103 11.872 13.9675 11.4814 13.2723 10.7863C12.5772 10.0912 12.1867 9.14835 12.1867 8.16528ZM24.048 7.42395C23.6548 7.42395 23.2777 7.58016 22.9996 7.85821C22.7216 8.13627 22.5653 8.51339 22.5653 8.90662C22.5653 9.29985 22.7216 9.67697 22.9996 9.95502C23.2777 10.2331 23.6548 10.3893 24.048 10.3893C24.4412 10.3893 24.8184 10.2331 25.0964 9.95502C25.3745 9.67697 25.5307 9.29985 25.5307 8.90662C25.5307 8.51339 25.3745 8.13627 25.0964 7.85821C24.8184 7.58016 24.4412 7.42395 24.048 7.42395ZM21.0827 8.90662C21.0827 8.12016 21.3951 7.36592 21.9512 6.80981C22.5073 6.2537 23.2616 5.94128 24.048 5.94128C24.8345 5.94128 25.5887 6.2537 26.1448 6.80981C26.7009 7.36592 27.0133 8.12016 27.0133 8.90662C27.0133 9.69307 26.7009 10.4473 26.1448 11.0034C25.5887 11.5595 24.8345 11.872 24.048 11.872C23.2616 11.872 22.5073 11.5595 21.9512 11.0034C21.3951 10.4473 21.0827 9.69307 21.0827 8.90662ZM6.25601 8.90662C6.25601 8.51339 6.41222 8.13627 6.69028 7.85821C6.96833 7.58016 7.34545 7.42395 7.73868 7.42395C8.13191 7.42395 8.50903 7.58016 8.78708 7.85821C9.06514 8.13627 9.22135 8.51339 9.22135 8.90662C9.22135 9.29985 9.06514 9.67697 8.78708 9.95502C8.50903 10.2331 8.13191 10.3893 7.73868 10.3893C7.34545 10.3893 6.96833 10.2331 6.69028 9.95502C6.41222 9.67697 6.25601 9.29985 6.25601 8.90662ZM7.73868 5.94128C6.95222 5.94128 6.19798 6.2537 5.64187 6.80981C5.08576 7.36592 4.77335 8.12016 4.77335 8.90662C4.77335 9.69307 5.08576 10.4473 5.64187 11.0034C6.19798 11.5595 6.95222 11.872 7.73868 11.872C8.52513 11.872 9.27938 11.5595 9.83549 11.0034C10.3916 10.4473 10.704 9.69307 10.704 8.90662C10.704 8.12016 10.3916 7.36592 9.83549 6.80981C9.27938 6.2537 8.52513 5.94128 7.73868 5.94128ZM8.62828 23.7303C8.22682 23.7504 7.82547 23.6887 7.44861 23.5489C7.07174 23.4091 6.72724 23.1941 6.43603 22.917C6.14482 22.64 5.91297 22.3066 5.75459 21.9371C5.5962 21.5677 5.51458 21.1699 5.51468 20.7679V15.208C5.51468 15.1096 5.55373 15.0154 5.62325 14.9458C5.69276 14.8763 5.78704 14.8373 5.88535 14.8373H8.50077C8.56008 14.2931 8.75282 13.7876 9.04194 13.3546H5.88535C4.86231 13.3546 4.03201 14.1849 4.03201 15.208V20.7679C4.03194 21.4027 4.16773 22.0301 4.43026 22.6081C4.69279 23.186 5.07596 23.701 5.55405 24.1186C6.03214 24.5361 6.59406 24.8465 7.20205 25.0289C7.81005 25.2113 8.45003 25.2614 9.07901 25.1759C8.87945 24.7108 8.72841 24.2264 8.62828 23.7303ZM22.7077 25.1759C23.3367 25.2614 23.9766 25.2113 24.5846 25.0289C25.1926 24.8465 25.7546 24.5361 26.2326 24.1186C26.7107 23.701 27.0939 23.186 27.3564 22.6081C27.619 22.0301 27.7547 21.4027 27.7547 20.7679V15.208C27.7547 14.1849 26.9244 13.3546 25.9013 13.3546H22.7447C23.0353 13.7876 23.2266 14.2931 23.2859 14.8373H25.9013C25.9997 14.8373 26.0939 14.8763 26.1634 14.9458C26.233 15.0154 26.272 15.1096 26.272 15.208V20.7679C26.2721 21.1699 26.1905 21.5677 26.0321 21.9371C25.8737 22.3066 25.6419 22.64 25.3507 22.917C25.0594 23.1941 24.7149 23.4091 24.3381 23.5489C23.9612 23.6887 23.5599 23.7504 23.1584 23.7303C23.0582 24.2264 22.9072 24.7108 22.7077 25.1759ZM11.816 13.3546C10.793 13.3546 9.96268 14.1849 9.96268 15.208V22.2506C9.96268 23.8235 10.5875 25.332 11.6997 26.4442C12.8119 27.5564 14.3204 28.1813 15.8933 28.1813C17.4663 28.1813 18.9747 27.5564 20.087 26.4442C21.1992 25.332 21.824 23.8235 21.824 22.2506V15.208C21.824 14.1849 20.9937 13.3546 19.9707 13.3546H11.816ZM11.4453 15.208C11.4453 15.1096 11.4844 15.0154 11.5539 14.9458C11.6234 14.8763 11.7177 14.8373 11.816 14.8373H19.9707C20.069 14.8373 20.1633 14.8763 20.2328 14.9458C20.3023 15.0154 20.3413 15.1096 20.3413 15.208V22.2506C20.3413 23.4303 19.8727 24.5617 19.0386 25.3958C18.2044 26.23 17.073 26.6986 15.8933 26.6986C14.7137 26.6986 13.5823 26.23 12.7481 25.3958C11.914 24.5617 11.4453 23.4303 11.4453 22.2506V15.208Z" fill="#28A7E6"/>
</svg>
