<svg width="32" height="32" viewBox="0 0 32 32" fill="none" xmlns="http://www.w3.org/2000/svg">
<g clip-path="url(#clip0_250_3393)">
<path d="M16 26C18.6522 26 21.1957 24.9464 23.0711 23.0711C24.9464 21.1957 26 18.6522 26 16C26 13.3478 24.9464 10.8043 23.0711 8.92893C21.1957 7.05357 18.6522 6 16 6C13.3478 6 10.8043 7.05357 8.92893 8.92893C7.05357 10.8043 6 13.3478 6 16C6 18.6522 7.05357 21.1957 8.92893 23.0711C10.8043 24.9464 13.3478 26 16 26ZM16 28C14.4241 28 12.8637 27.6896 11.4078 27.0866C9.95189 26.4835 8.62902 25.5996 7.51472 24.4853C6.40042 23.371 5.5165 22.0481 4.91345 20.5922C4.31039 19.1363 4 17.5759 4 16C4 14.4241 4.31039 12.8637 4.91345 11.4078C5.5165 9.95189 6.40042 8.62902 7.51472 7.51472C8.62902 6.40042 9.95189 5.5165 11.4078 4.91345C12.8637 4.31039 14.4241 4 16 4C19.1826 4 22.2348 5.26428 24.4853 7.51472C26.7357 9.76515 28 12.8174 28 16C28 19.1826 26.7357 22.2348 24.4853 24.4853C22.2348 26.7357 19.1826 28 16 28Z" fill="#28A7E6"/>
<path d="M9.13403 25.7681L10.866 26.7681L9.36603 29.3661C9.30085 29.4807 9.21363 29.5814 9.1094 29.6622C9.00517 29.743 8.88599 29.8023 8.75872 29.8369C8.63145 29.8715 8.4986 29.8805 8.36782 29.8635C8.23704 29.8465 8.11091 29.8038 7.9967 29.7379C7.88249 29.6719 7.78245 29.584 7.70234 29.4793C7.62223 29.3745 7.56364 29.2549 7.52993 29.1274C7.49622 28.9999 7.48806 28.867 7.50593 28.7364C7.5238 28.6057 7.56733 28.4799 7.63403 28.3661L9.13403 25.7681ZM22.866 25.7681L21.134 26.7681L22.634 29.3661C22.6992 29.4807 22.7864 29.5814 22.8907 29.6622C22.9949 29.743 23.1141 29.8023 23.2413 29.8369C23.3686 29.8715 23.5015 29.8805 23.6322 29.8635C23.763 29.8465 23.8891 29.8038 24.0034 29.7379C24.1176 29.6719 24.2176 29.584 24.2977 29.4793C24.3778 29.3745 24.4364 29.2549 24.4701 29.1274C24.5038 28.9999 24.512 28.867 24.4941 28.7364C24.4763 28.6057 24.4327 28.4799 24.366 28.3661L22.866 25.7681ZM16 16.0001H21C21.2652 16.0001 21.5196 16.1055 21.7071 16.293C21.8947 16.4805 22 16.7349 22 17.0001C22 17.2653 21.8947 17.5197 21.7071 17.7072C21.5196 17.8947 21.2652 18.0001 21 18.0001H15C14.7348 18.0001 14.4805 17.8947 14.2929 17.7072C14.1054 17.5197 14 17.2653 14 17.0001V10.0001C14 9.73488 14.1054 9.48052 14.2929 9.29299C14.4805 9.10545 14.7348 9.00009 15 9.00009C15.2652 9.00009 15.5196 9.10545 15.7071 9.29299C15.8947 9.48052 16 9.73488 16 10.0001V16.0001ZM2.82803 9.75809C2.18984 8.7964 1.90401 7.64353 2.01904 6.4951C2.13407 5.34666 2.64288 4.27339 3.45912 3.45737C4.27537 2.64136 5.34879 2.13287 6.49726 2.01817C7.64573 1.90347 8.79852 2.18963 9.76003 2.82809L8.29603 4.29209C7.73621 4.02473 7.10728 3.9375 6.49583 4.04241C5.88438 4.14731 5.32049 4.4392 4.88181 4.87788C4.44314 5.31656 4.15125 5.88045 4.04634 6.49189C3.94143 7.10334 4.02867 7.73228 4.29603 8.29209L2.83003 9.75809H2.82803ZM28.93 9.75809C29.5673 8.79655 29.8526 7.64421 29.7373 6.49641C29.6221 5.34861 29.1136 4.27595 28.2979 3.46025C27.4822 2.64455 26.4095 2.136 25.2617 2.02079C24.1139 1.90557 22.9616 2.19079 22 2.82809L23.464 4.29209C24.0238 4.02473 24.6528 3.9375 25.2642 4.04241C25.8757 4.14731 26.4396 4.4392 26.8782 4.87788C27.3169 5.31656 27.6088 5.88045 27.7137 6.49189C27.8186 7.10334 27.7314 7.73228 27.464 8.29209L28.93 9.75809Z" fill="#28A7E6"/>
</g>
<defs>
<clipPath id="clip0_250_3393">
<rect width="32" height="32" fill="white"/>
</clipPath>
</defs>
</svg>
