<svg width="33" height="32" viewBox="0 0 33 32" fill="none" xmlns="http://www.w3.org/2000/svg">
<g clip-path="url(#clip0_288_26045)">
<path d="M24.5 3.2H8.5C7.75739 3.2 7.0452 3.495 6.5201 4.0201C5.995 4.5452 5.7 5.25739 5.7 6V26C5.7 26.7426 5.995 27.4548 6.5201 27.9799C7.0452 28.505 7.75739 28.8 8.5 28.8H24.5C25.2426 28.8 25.9548 28.505 26.4799 27.9799C27.005 27.4548 27.3 26.7426 27.3 26V6C27.3 5.25739 27.005 4.5452 26.4799 4.0201C25.9548 3.495 25.2426 3.2 24.5 3.2ZM25.7 26C25.7 26.3183 25.5736 26.6235 25.3485 26.8485C25.1235 27.0736 24.8183 27.2 24.5 27.2H8.5C8.18174 27.2 7.87652 27.0736 7.65147 26.8485C7.42643 26.6235 7.3 26.3183 7.3 26V6C7.3 5.68174 7.42643 5.37652 7.65147 5.15147C7.87652 4.92643 8.18174 4.8 8.5 4.8H24.5C24.8183 4.8 25.1235 4.92643 25.3485 5.15147C25.5736 5.37652 25.7 5.68174 25.7 6V26ZM17.5809 9.22224C17.7238 9.00846 17.8 8.75711 17.8 8.5C17.8 8.15522 17.663 7.82456 17.4192 7.58076C17.1754 7.33696 16.8448 7.2 16.5 7.2C16.2429 7.2 15.9915 7.27624 15.7778 7.41909C15.564 7.56194 15.3974 7.76497 15.299 8.00251C15.2006 8.24005 15.1748 8.50144 15.225 8.75362C15.2751 9.00579 15.399 9.23743 15.5808 9.41924C15.7626 9.60105 15.9942 9.72486 16.2464 9.77502C16.4986 9.82518 16.7599 9.79944 16.9975 9.70104C17.235 9.60265 17.4381 9.43603 17.5809 9.22224Z" fill="#28A7E6" stroke="#28A7E6" stroke-width="0.6"/>
</g>
<defs>
<clipPath id="clip0_288_26045">
<rect width="32" height="32" fill="white" transform="translate(0.5)"/>
</clipPath>
</defs>
</svg>
