<svg width="33" height="32" viewBox="0 0 33 32" fill="none" xmlns="http://www.w3.org/2000/svg">
<g clip-path="url(#clip0_288_21402)">
<path d="M30.5 28.6L27.7 25.8C28.2 25 28.5 24 28.5 23C28.5 20.2 26.3 18 23.5 18C20.7 18 18.5 20.2 18.5 23C18.5 25.8 20.7 28 23.5 28C24.5 28 25.5 27.7 26.3 27.2L29.1 30L30.5 28.6ZM20.5 23C20.5 21.3 21.8 20 23.5 20C25.2 20 26.5 21.3 26.5 23C26.5 24.7 25.2 26 23.5 26C21.8 26 20.5 24.7 20.5 23ZM8.5 16H18.5V18H8.5V16ZM8.5 10H20.5V12H8.5V10Z" fill="#28A7E6"/>
<path d="M14.5 27.7L9.3 24.9C6.3 23.4 4.5 20.3 4.5 17V4H24.5V15H26.5V4C26.5 2.9 25.6 2 24.5 2H4.5C3.4 2 2.5 2.9 2.5 4V17C2.5 21.1 4.7 24.8 8.3 26.7L14.5 30V27.7Z" fill="#28A7E6"/>
</g>
<defs>
<clipPath id="clip0_288_21402">
<rect width="32" height="32" fill="white" transform="translate(0.5)"/>
</clipPath>
</defs>
</svg>
